<?xml version="1.0" encoding="iso-8859-1"?>
<!-- Uploaded to: SVG Repo, www.svgrepo.com, Generator: SVG Repo Mixer Tools -->
<!DOCTYPE svg PUBLIC "-//W3C//DTD SVG 1.1//EN" "http://www.w3.org/Graphics/SVG/1.1/DTD/svg11.dtd">
<svg fill="#000000" height="800px" width="800px" version="1.1" id="Capa_1" xmlns="http://www.w3.org/2000/svg" xmlns:xlink="http://www.w3.org/1999/xlink" 
	 viewBox="0 0 297 297" xml:space="preserve">
<g>
	<g>
		<path d="M149.18,242.567l-21.658-62.082c-0.762-2.188-0.762-4.572,0-6.761l21.699-62.208l-10.666-61.165
			c-14.545-16.285-35.674-26.563-59.174-26.563C35.611,23.789,0,59.398,0,103.17c0,23.083,7.848,46.557,23.324,69.772
			c12.014,18.02,28.664,35.957,49.488,53.31c32.584,27.153,64.721,44.107,70.285,46.96L149.18,242.567z"/>
	</g>
	<g>
		<path d="M217.619,23.789c-23.076,0-43.871,9.906-58.385,25.683l10.664,61.146c0.301,1.722,0.156,3.492-0.42,5.143l-21.398,61.346
			l21.398,61.339c0.604,1.728,0.732,3.583,0.377,5.378l-4.604,23.191c13.398-7.66,36.059-21.696,58.938-40.762
			c20.824-17.354,37.475-35.29,49.488-53.311C289.154,149.727,297,126.253,297,103.17C297,59.398,261.391,23.789,217.619,23.789z"/>
	</g>
</g>
</svg>